<svg width="40" height="40" viewBox="0 0 40 40" fill="none" xmlns="http://www.w3.org/2000/svg">
<path d="M31.6693 6.66699H8.33594C7.00986 6.66699 5.73809 7.19378 4.8004 8.13146C3.86272 9.06914 3.33594 10.3409 3.33594 11.667V28.3337C3.33594 29.6597 3.86272 30.9315 4.8004 31.8692C5.73809 32.8069 7.00986 33.3337 8.33594 33.3337H31.6693C32.9954 33.3337 34.2671 32.8069 35.2048 31.8692C36.1425 30.9315 36.6693 29.6597 36.6693 28.3337V11.667C36.6693 10.3409 36.1425 9.06914 35.2048 8.13146C34.2671 7.19378 32.9954 6.66699 31.6693 6.66699ZM30.9859 10.0003L21.1859 19.8003C21.031 19.9565 20.8467 20.0805 20.6436 20.1651C20.4405 20.2498 20.2226 20.2933 20.0026 20.2933C19.7826 20.2933 19.5647 20.2498 19.3616 20.1651C19.1585 20.0805 18.9742 19.9565 18.8193 19.8003L9.01927 10.0003H30.9859ZM33.3359 28.3337C33.3359 28.7757 33.1603 29.1996 32.8478 29.5122C32.5352 29.8247 32.1113 30.0003 31.6693 30.0003H8.33594C7.89391 30.0003 7.46999 29.8247 7.15743 29.5122C6.84487 29.1996 6.66927 28.7757 6.66927 28.3337V12.3503L16.4693 22.1503C17.4068 23.0867 18.6776 23.6126 20.0026 23.6126C21.3276 23.6126 22.5984 23.0867 23.5359 22.1503L33.3359 12.3503V28.3337Z" fill="#223B61"/>
</svg>
