<svg width="34" height="34" viewBox="0 0 34 34" fill="none" xmlns="http://www.w3.org/2000/svg">
<path d="M31.8359 0.333008H2.16927C1.68304 0.333008 1.21673 0.526162 0.872909 0.869979C0.529092 1.2138 0.335938 1.68011 0.335938 2.16634V31.833C0.335938 32.0738 0.383358 32.3122 0.475492 32.5346C0.567625 32.757 0.702668 32.9591 0.872909 33.1294C1.04315 33.2996 1.24525 33.4347 1.46768 33.5268C1.69011 33.6189 1.92851 33.6663 2.16927 33.6663H18.1359V20.7497H13.8026V15.7497H18.1359V11.9997C18.0462 11.1193 18.1501 10.2299 18.4405 9.3939C18.7308 8.55792 19.2005 7.79558 19.8167 7.16036C20.4329 6.52514 21.1806 6.03241 22.0073 5.71674C22.8341 5.40107 23.7199 5.27009 24.6026 5.33301C25.8998 5.32503 27.1964 5.3918 28.4859 5.53301V10.033H25.8359C23.7359 10.033 23.3359 11.033 23.3359 12.483V15.6997H28.3359L27.6859 20.6997H23.3359V33.6663H31.8359C32.0767 33.6663 32.3151 33.6189 32.5375 33.5268C32.76 33.4347 32.9621 33.2996 33.1323 33.1294C33.3025 32.9591 33.4376 32.757 33.5297 32.5346C33.6219 32.3122 33.6693 32.0738 33.6693 31.833V2.16634C33.6693 1.92558 33.6219 1.68719 33.5297 1.46476C33.4376 1.24232 33.3025 1.04022 33.1323 0.869979C32.9621 0.699738 32.76 0.564696 32.5375 0.472562C32.3151 0.380429 32.0767 0.333008 31.8359 0.333008V0.333008Z" fill="#223B61"/>
</svg>
