<svg width="34" height="34" viewBox="0 0 34 34" fill="none" xmlns="http://www.w3.org/2000/svg">
<path d="M17.0026 12.8663C16.1851 12.8663 15.386 13.1088 14.7062 13.5629C14.0265 14.0171 13.4967 14.6626 13.1839 15.4179C12.8711 16.1732 12.7892 17.0043 12.9487 17.806C13.1082 18.6078 13.5018 19.3443 14.0799 19.9224C14.658 20.5004 15.3944 20.8941 16.1962 21.0536C16.998 21.2131 17.8291 21.1312 18.5844 20.8184C19.3396 20.5055 19.9852 19.9758 20.4393 19.296C20.8935 18.6163 21.1359 17.8172 21.1359 16.9997C21.1359 16.4569 21.029 15.9194 20.8213 15.4179C20.6136 14.9164 20.3091 14.4608 19.9253 14.077C19.5415 13.6932 19.0858 13.3887 18.5844 13.181C18.0829 12.9733 17.5454 12.8663 17.0026 12.8663V12.8663ZM33.5526 8.78301C33.5438 7.49594 33.3068 6.22063 32.8526 5.01634C32.5181 4.13511 32.0005 3.33483 31.334 2.66832C30.6674 2.0018 29.8672 1.4842 28.9859 1.14967C27.7817 0.695447 26.5063 0.458443 25.2193 0.449674C23.0693 0.333008 22.4359 0.333008 17.0026 0.333008C11.5693 0.333008 10.9359 0.333008 8.78594 0.449674C7.49887 0.458443 6.22356 0.695447 5.01927 1.14967C4.13804 1.4842 3.33776 2.0018 2.67125 2.66832C2.00473 3.33483 1.48713 4.13511 1.1526 5.01634C0.698377 6.22063 0.461372 7.49594 0.452604 8.78301C0.335937 10.933 0.335938 11.5663 0.335938 16.9997C0.335938 22.433 0.335937 23.0663 0.452604 25.2163C0.470544 26.5079 0.707228 27.7872 1.1526 28.9997C1.48565 29.8769 2.00282 30.6725 2.66927 31.333C3.33293 32.0035 4.13492 32.5211 5.01927 32.8497C6.22356 33.3039 7.49887 33.5409 8.78594 33.5497C10.9359 33.6663 11.5693 33.6663 17.0026 33.6663C22.4359 33.6663 23.0693 33.6663 25.2193 33.5497C26.5063 33.5409 27.7817 33.3039 28.9859 32.8497C29.8703 32.5211 30.6723 32.0035 31.3359 31.333C32.0024 30.6725 32.5196 29.8769 32.8526 28.9997C33.3064 27.7895 33.5434 26.5088 33.5526 25.2163C33.6693 23.0663 33.6693 22.433 33.6693 16.9997C33.6693 11.5663 33.6693 10.933 33.5526 8.78301V8.78301ZM29.3193 22.1163C29.2658 23.1448 29.0463 24.1579 28.6693 25.1163C28.3457 25.9158 27.8647 26.6421 27.2549 27.2519C26.645 27.8618 25.9187 28.3428 25.1193 28.6663C24.1518 29.0223 23.1331 29.2193 22.1026 29.2497C20.7859 29.2497 20.4359 29.2497 17.0026 29.2497C13.5693 29.2497 13.2193 29.2497 11.9026 29.2497C10.8722 29.2193 9.85342 29.0223 8.88594 28.6663C8.05944 28.3592 7.31307 27.8692 6.7026 27.233C6.09872 26.6351 5.63234 25.9128 5.33594 25.1163C4.97853 24.1499 4.78695 23.13 4.76927 22.0997C4.76927 20.783 4.76927 20.433 4.76927 16.9997C4.76927 13.5663 4.76927 13.2163 4.76927 11.8997C4.78695 10.8694 4.97853 9.84948 5.33594 8.88301C5.64307 8.05651 6.13306 7.31014 6.76927 6.69968C7.36983 6.09905 8.09138 5.63316 8.88594 5.33301C9.85342 4.97702 10.8722 4.78002 11.9026 4.74967V4.74967C13.2193 4.74967 13.5693 4.74967 17.0026 4.74967C20.4359 4.74967 20.7859 4.74967 22.1026 4.74967C23.1331 4.78002 24.1518 4.97702 25.1193 5.33301C25.9458 5.64014 26.6921 6.13013 27.3026 6.76634C27.9065 7.36426 28.3729 8.08656 28.6693 8.88301C29.0253 9.85049 29.2223 10.8692 29.2526 11.8997C29.2526 13.2163 29.2526 13.5663 29.2526 16.9997C29.2526 20.433 29.3693 20.783 29.3193 22.0997V22.1163ZM26.6526 9.71634C26.4542 9.17798 26.1413 8.68908 25.7356 8.28336C25.3299 7.87765 24.841 7.56478 24.3026 7.36634C23.5634 7.11011 22.7848 6.98599 22.0026 6.99967C20.7026 6.99967 20.3359 6.99967 17.0026 6.99967C13.6693 6.99967 13.3026 6.99967 12.0026 6.99967C11.2164 7.00736 10.4377 7.15406 9.7026 7.43301C9.17249 7.62244 8.68876 7.92253 8.28358 8.31334C7.8784 8.70416 7.56104 9.17674 7.3526 9.69967C7.11057 10.442 6.99232 11.219 7.0026 11.9997C7.0026 13.2997 7.0026 13.6663 7.0026 16.9997C7.0026 20.333 7.0026 20.6997 7.0026 21.9997C7.01913 22.785 7.16555 23.5622 7.43594 24.2997C7.63438 24.838 7.94725 25.3269 8.35296 25.7327C8.75868 26.1384 9.24758 26.4512 9.78594 26.6497C10.497 26.9112 11.2454 27.0575 12.0026 27.083V27.083C13.3026 27.083 13.6693 27.083 17.0026 27.083C20.3359 27.083 20.7026 27.083 22.0026 27.083C22.7888 27.0753 23.5675 26.9286 24.3026 26.6497C24.841 26.4512 25.3299 26.1384 25.7356 25.7327C26.1413 25.3269 26.4542 24.838 26.6526 24.2997C26.9316 23.5646 27.0783 22.7859 27.0859 21.9997C27.0859 20.6997 27.0859 20.333 27.0859 16.9997C27.0859 13.6663 27.0859 13.2997 27.0859 11.9997C27.0864 11.2127 26.9394 10.4325 26.6526 9.69967V9.71634ZM17.0026 23.3663C16.1673 23.3663 15.3402 23.2015 14.5687 22.8814C13.7972 22.5612 13.0964 22.092 12.5066 21.5006C11.9167 20.9092 11.4493 20.2072 11.1312 19.4348C10.813 18.6625 10.6504 17.835 10.6526 16.9997V16.9997C10.6526 15.7398 11.0264 14.5082 11.7267 13.4608C12.4271 12.4135 13.4224 11.5974 14.5867 11.1161C15.751 10.6347 17.032 10.5096 18.2675 10.7566C19.503 11.0036 20.6374 11.6116 21.5271 12.5037C22.4168 13.3957 23.0219 14.5317 23.2656 15.7678C23.5094 17.004 23.3809 18.2846 22.8965 19.4477C22.4121 20.6107 21.5934 21.6039 20.5443 22.3015C19.4951 22.999 18.2625 23.3696 17.0026 23.3663V23.3663ZM23.6693 11.883C23.3008 11.844 22.9599 11.67 22.7121 11.3946C22.4643 11.1192 22.3272 10.7618 22.3272 10.3913C22.3272 10.0209 22.4643 9.66347 22.7121 9.38806C22.9599 9.11264 23.3008 8.93867 23.6693 8.89967V8.89967C24.0377 8.93867 24.3787 9.11264 24.6265 9.38806C24.8743 9.66347 25.0114 10.0209 25.0114 10.3913C25.0114 10.7618 24.8743 11.1192 24.6265 11.3946C24.3787 11.67 24.0377 11.844 23.6693 11.883Z" fill="#223B61"/>
</svg>
