<svg width="34" height="34" viewBox="0 0 34 34" fill="none" xmlns="http://www.w3.org/2000/svg">
<path d="M19.9693 12.7663C19.8861 12.7663 19.8037 12.7827 19.7269 12.8146C19.6501 12.8464 19.5802 12.893 19.5214 12.9518C19.4626 13.0107 19.416 13.0805 19.3841 13.1573C19.3523 13.2341 19.3359 13.3165 19.3359 13.3997V16.183L17.0026 13.083C16.9445 12.9887 16.8637 12.9103 16.7677 12.855C16.6717 12.7997 16.5634 12.7693 16.4526 12.7663C16.3694 12.7663 16.2871 12.7827 16.2102 12.8146C16.1334 12.8464 16.0636 12.893 16.0048 12.9518C15.946 13.0107 15.8993 13.0805 15.8675 13.1573C15.8357 13.2341 15.8193 13.3165 15.8193 13.3997V18.133C15.8193 18.2162 15.8357 18.2985 15.8675 18.3754C15.8993 18.4522 15.946 18.522 16.0048 18.5808C16.0636 18.6397 16.1334 18.6863 16.2102 18.7181C16.2871 18.75 16.3694 18.7663 16.4526 18.7663V18.7663C16.5358 18.7663 16.6181 18.75 16.695 18.7181C16.7718 18.6863 16.8416 18.6397 16.9004 18.5808C16.9592 18.522 17.0059 18.4522 17.0377 18.3754C17.0696 18.2985 17.0859 18.2162 17.0859 18.133V15.333L19.4026 18.5163C19.4616 18.6051 19.5502 18.6701 19.6526 18.6997C19.7294 18.7169 19.8091 18.7169 19.8859 18.6997C19.959 18.7263 20.0369 18.737 20.1145 18.7313C20.1921 18.7255 20.2676 18.7034 20.3359 18.6663L20.5026 18.5497C20.6196 18.429 20.6853 18.2677 20.6859 18.0997V13.3997C20.6867 13.309 20.668 13.2192 20.6311 13.1364C20.5942 13.0536 20.54 12.9796 20.472 12.9196C20.4041 12.8595 20.324 12.8148 20.2373 12.7884C20.1506 12.7619 20.0592 12.7544 19.9693 12.7663V12.7663ZM12.3359 17.4497H10.5693V13.3997C10.5693 13.2317 10.5025 13.0706 10.3838 12.9518C10.265 12.8331 10.1039 12.7663 9.93594 12.7663V12.7663C9.76797 12.7663 9.60688 12.8331 9.4881 12.9518C9.36933 13.0706 9.3026 13.2317 9.3026 13.3997V18.133C9.3026 18.301 9.36933 18.4621 9.4881 18.5808C9.60688 18.6996 9.76797 18.7663 9.93594 18.7663H12.3359C12.5055 18.7664 12.6683 18.7002 12.7898 18.5819C12.9112 18.4636 12.9816 18.3025 12.9859 18.133V18.133C12.9905 18.0449 12.977 17.9568 12.9464 17.874C12.9157 17.7913 12.8686 17.7156 12.8078 17.6517C12.7469 17.5878 12.6737 17.5369 12.5926 17.5021C12.5115 17.4674 12.4242 17.4496 12.3359 17.4497V17.4497ZM14.1859 12.7663C14.0164 12.7663 13.8535 12.8325 13.7321 12.9508C13.6107 13.0691 13.5403 13.2302 13.5359 13.3997V18.133C13.5403 18.3025 13.6107 18.4636 13.7321 18.5819C13.8535 18.7002 14.0164 18.7664 14.1859 18.7663V18.7663C14.3539 18.7663 14.515 18.6996 14.6338 18.5808C14.7525 18.4621 14.8193 18.301 14.8193 18.133V13.3997C14.8193 13.2317 14.7525 13.0706 14.6338 12.9518C14.515 12.8331 14.3539 12.7663 14.1859 12.7663V12.7663ZM26.8526 0.333008H7.1526C5.34606 0.337409 3.61477 1.057 2.33735 2.33442C1.05993 3.61184 0.340338 5.34314 0.335938 7.14968V26.8497C0.340338 28.6562 1.05993 30.3875 2.33735 31.6649C3.61477 32.9423 5.34606 33.6619 7.1526 33.6663H26.8526C28.6591 33.6619 30.3904 32.9423 31.6679 31.6649C32.9453 30.3875 33.6649 28.6562 33.6693 26.8497V7.14968C33.6649 5.34314 32.9453 3.61184 31.6679 2.33442C30.3904 1.057 28.6591 0.337409 26.8526 0.333008V0.333008ZM27.3693 20.7997C27.3037 20.899 27.2313 20.9937 27.1526 21.083V21.083C26.7552 21.5721 26.3084 22.0189 25.8193 22.4163C22.4859 25.533 16.8859 29.2663 16.1359 28.683C15.3859 28.0997 17.2026 25.7497 15.2526 25.3497C15.1143 25.3671 14.9743 25.3671 14.8359 25.3497C9.1026 24.5497 4.83594 20.533 4.83594 15.7163C4.83594 10.2997 10.3193 5.91634 17.0693 5.91634C23.8193 5.91634 29.3026 10.2997 29.3026 15.7163C29.2448 17.5793 28.5641 19.3691 27.3693 20.7997V20.7997ZM24.5193 12.783H22.0026C21.8346 12.783 21.6735 12.8497 21.5548 12.9685C21.436 13.0873 21.3693 13.2484 21.3693 13.4163V18.1497C21.3693 18.2328 21.3857 18.3152 21.4175 18.392C21.4493 18.4689 21.496 18.5387 21.5548 18.5975C21.6136 18.6563 21.6834 18.703 21.7602 18.7348C21.8371 18.7666 21.9194 18.783 22.0026 18.783H24.4693C24.5524 18.783 24.6348 18.7666 24.7116 18.7348C24.7885 18.703 24.8583 18.6563 24.9171 18.5975C24.9759 18.5387 25.0226 18.4689 25.0544 18.392C25.0862 18.3152 25.1026 18.2328 25.1026 18.1497V18.1497C25.1026 17.9817 25.0359 17.8206 24.9171 17.7018C24.7983 17.5831 24.6372 17.5163 24.4693 17.5163H22.7526V16.5163H24.5193C24.6888 16.512 24.8498 16.4416 24.9682 16.3202C25.0865 16.1987 25.1527 16.0359 25.1526 15.8663V15.8663C25.1526 15.6984 25.0859 15.5373 24.9671 15.4185C24.8483 15.2997 24.6872 15.233 24.5193 15.233H22.7526V14.2163H24.5193C24.6872 14.2163 24.8483 14.1496 24.9671 14.0308C25.0859 13.9121 25.1526 13.751 25.1526 13.583C25.1788 13.4872 25.1821 13.3866 25.1622 13.2893C25.1424 13.192 25.0999 13.1007 25.0383 13.0228C24.9766 12.945 24.8975 12.8827 24.8074 12.841C24.7172 12.7994 24.6185 12.7795 24.5193 12.783V12.783Z" fill="#223B61"/>
</svg>
