<svg width="41" height="40" viewBox="0 0 41 40" fill="none" xmlns="http://www.w3.org/2000/svg">
<path d="M30.5015 7.46635C27.8493 4.81419 24.2522 3.32422 20.5015 3.32422C16.7508 3.32422 13.1537 4.81419 10.5015 7.46635C7.84935 10.1185 6.35938 13.7156 6.35938 17.4664C6.35937 21.2171 7.84935 24.8142 10.5015 27.4664L19.2848 36.2664C19.4398 36.4226 19.6241 36.5466 19.8272 36.6312C20.0303 36.7158 20.2482 36.7593 20.4682 36.7593C20.6882 36.7593 20.906 36.7158 21.1091 36.6312C21.3122 36.5466 21.4966 36.4226 21.6515 36.2664L30.5015 27.383C33.1426 24.7419 34.6263 21.1598 34.6263 17.4247C34.6263 13.6896 33.1426 10.1075 30.5015 7.46635ZM28.1182 24.9997L20.5015 32.6497L12.8848 24.9997C11.3801 23.4935 10.3556 21.5751 9.941 19.4868C9.52637 17.3986 9.74016 15.2343 10.5554 13.2675C11.3705 11.3007 12.7505 9.61977 14.5209 8.43715C16.2913 7.25453 18.3725 6.62332 20.5015 6.62332C22.6305 6.62332 24.7118 7.25453 26.4821 8.43715C28.2525 9.61977 29.6325 11.3007 30.4477 13.2675C31.2629 15.2343 31.4767 17.3986 31.062 19.4868C30.6474 21.5751 29.6229 23.4935 28.1182 24.9997ZM15.5015 12.3497C14.156 13.6993 13.4005 15.5273 13.4005 17.433C13.4005 19.3387 14.156 21.1667 15.5015 22.5164C16.5011 23.5177 17.7742 24.2015 19.1609 24.482C20.5477 24.7626 21.9864 24.6273 23.2966 24.0933C24.6068 23.5592 25.7301 22.6502 26.5256 21.4801C27.3211 20.3101 27.7534 18.9311 27.7682 17.5164C27.7757 16.5717 27.5937 15.6351 27.233 14.762C26.8723 13.8889 26.3402 13.0969 25.6682 12.433C25.0076 11.7573 24.22 11.2189 23.3505 10.8488C22.4811 10.4787 21.5471 10.2841 20.6022 10.2764C19.6573 10.2687 18.7202 10.4478 17.8448 10.8037C16.9694 11.1595 16.173 11.6849 15.5015 12.3497ZM23.3182 20.1497C22.6866 20.7909 21.8519 21.1929 20.9567 21.2868C20.0616 21.3807 19.1616 21.1608 18.4107 20.6646C17.6598 20.1684 17.1045 19.4268 16.8399 18.5665C16.5752 17.7062 16.6176 16.7807 16.9598 15.9483C17.302 15.1158 17.9227 14.428 18.7158 14.0026C19.509 13.5771 20.4253 13.4404 21.3081 13.6157C22.1909 13.7911 22.9854 14.2676 23.5557 14.9639C24.126 15.6602 24.4368 16.533 24.4348 17.433C24.4106 18.4618 23.979 19.4389 23.2348 20.1497H23.3182Z" fill="#223B61"/>
</svg>
