<svg width="40" height="40" viewBox="0 0 40 40" fill="none" xmlns="http://www.w3.org/2000/svg">
<path d="M34.1198 14.9999C34.4494 14.9999 34.7716 14.9022 35.0457 14.7191C35.3198 14.5359 35.5334 14.2756 35.6596 13.9711C35.7857 13.6665 35.8187 13.3314 35.7544 13.0081C35.6901 12.6848 35.5314 12.3879 35.2983 12.1548C35.0652 11.9217 34.7682 11.7629 34.4449 11.6986C34.1216 11.6343 33.7865 11.6673 33.482 11.7935C33.1774 11.9196 32.9171 12.1332 32.734 12.4073C32.5509 12.6814 32.4531 13.0036 32.4531 13.3333C32.4531 13.7753 32.6287 14.1992 32.9413 14.5118C33.2538 14.8243 33.6778 14.9999 34.1198 14.9999ZM29.1198 14.9999C29.4494 14.9999 29.7716 14.9022 30.0457 14.7191C30.3198 14.5359 30.5334 14.2756 30.6596 13.9711C30.7857 13.6665 30.8187 13.3314 30.7544 13.0081C30.6901 12.6848 30.5314 12.3879 30.2983 12.1548C30.0652 11.9217 29.7682 11.7629 29.4449 11.6986C29.1216 11.6343 28.7865 11.6673 28.482 11.7935C28.1774 11.9196 27.9171 12.1332 27.734 12.4073C27.5509 12.6814 27.4531 13.0036 27.4531 13.3333C27.4531 13.7753 27.6287 14.1992 27.9413 14.5118C28.2538 14.8243 28.6778 14.9999 29.1198 14.9999ZM24.1198 14.9999C24.4494 14.9999 24.7716 14.9022 25.0457 14.7191C25.3198 14.5359 25.5334 14.2756 25.6596 13.9711C25.7857 13.6665 25.8187 13.3314 25.7544 13.0081C25.6901 12.6848 25.5314 12.3879 25.2983 12.1548C25.0652 11.9217 24.7682 11.7629 24.4449 11.6986C24.1216 11.6343 23.7865 11.6673 23.482 11.7935C23.1774 11.9196 22.9171 12.1332 22.734 12.4073C22.5509 12.6814 22.4531 13.0036 22.4531 13.3333C22.4531 13.5521 22.4962 13.7689 22.58 13.9711C22.6637 14.1733 22.7865 14.357 22.9413 14.5118C23.096 14.6666 23.2798 14.7893 23.482 14.8731C23.6842 14.9568 23.9009 14.9999 24.1198 14.9999ZM31.5198 21.6666C31.1531 21.6666 30.7698 21.5499 30.4031 21.4666C29.6606 21.303 28.9309 21.0857 28.2198 20.8166C27.4466 20.5353 26.5967 20.5499 25.8336 20.8576C25.0706 21.1653 24.4483 21.7443 24.0864 22.4833L23.7198 23.2333C22.094 22.3263 20.5973 21.2052 19.2698 19.8999C17.9709 18.5731 16.8504 17.0828 15.9364 15.4666L16.6698 14.9999C17.4087 14.6381 17.9877 14.0158 18.2954 13.2528C18.6031 12.4897 18.6177 11.6398 18.3364 10.8666C18.0718 10.154 17.8547 9.42461 17.6864 8.68328C17.6031 8.29994 17.5364 7.93328 17.4864 7.54994C17.2841 6.37598 16.6692 5.31285 15.7525 4.55201C14.8358 3.79117 13.6776 3.38262 12.4864 3.39994H7.48645C6.78186 3.39902 6.08503 3.54702 5.44164 3.83425C4.79826 4.12148 4.22284 4.54144 3.75311 5.06661C3.27593 5.6041 2.92023 6.23816 2.71027 6.92556C2.50032 7.61296 2.44103 8.33755 2.53645 9.04994C3.4143 16.0283 6.59041 22.5159 11.5638 27.4893C16.5371 32.4626 23.0247 35.6388 30.0031 36.5166C30.2195 36.5331 30.4368 36.5331 30.6531 36.5166C31.9792 36.5166 33.251 35.9898 34.1886 35.0521C35.1263 34.1145 35.6531 32.8427 35.6531 31.5166V26.5166C35.6358 25.3536 35.2136 24.2331 34.4592 23.3478C33.7047 22.4626 32.6653 21.8681 31.5198 21.6666ZM32.3364 31.6666C32.3392 31.9082 32.2894 32.1475 32.1904 32.3679C32.0915 32.5883 31.9458 32.7846 31.7635 32.9432C31.5812 33.1017 31.3666 33.2187 31.1346 33.2861C30.9025 33.3534 30.6586 33.3695 30.4198 33.3333C24.1967 32.5212 18.4149 29.6801 13.9698 25.2499C9.52811 20.7747 6.69185 14.9557 5.90311 8.69994C5.86691 8.4555 5.88551 8.20607 5.95757 7.9697C6.02963 7.73333 6.15336 7.51594 6.31978 7.33328C6.4741 7.15759 6.66366 7.01634 6.87615 6.91871C7.08863 6.82108 7.31929 6.76926 7.55311 6.76661H12.5531C12.9407 6.75799 13.3192 6.88474 13.6234 7.12506C13.9276 7.36538 14.1385 7.70423 14.2198 8.08328C14.2864 8.53883 14.3698 8.98883 14.4698 9.43328C14.6623 10.3118 14.9185 11.1752 15.2364 12.0166L12.9031 13.0999C12.7036 13.1915 12.5242 13.3215 12.375 13.4826C12.2259 13.6437 12.1101 13.8326 12.0342 14.0386C11.9583 14.2446 11.9239 14.4635 11.9329 14.6828C11.9418 14.9021 11.994 15.1175 12.0864 15.3166C14.4851 20.4545 18.6152 24.5846 23.7531 26.9833C24.1589 27.15 24.614 27.15 25.0198 26.9833C25.4334 26.8293 25.769 26.5177 25.9531 26.1166L27.0031 23.7833C27.8647 24.0914 28.7441 24.3474 29.6364 24.5499C30.0698 24.6499 30.5364 24.7333 30.9864 24.7999C31.3624 24.8846 31.6974 25.097 31.9344 25.4008C32.1715 25.7047 32.2959 26.0813 32.2864 26.4666L32.3364 31.6666Z" fill="#223B61"/>
</svg>
