<svg xmlns="http://www.w3.org/2000/svg" width="41" height="40" viewBox="0 0 41 40" fill="none">
  <path fill-rule="evenodd" clip-rule="evenodd" d="M34.3911 11.8086L38.5508 15.9465C40.7962 18.1784 40.7962 21.8303 38.5508 24.0595L24.1983 38.3304C21.9529 40.5623 18.282 40.5623 16.0365 38.3304L1.68409 24.0568C-0.561363 21.8249 -0.561363 18.1757 1.68409 15.9438L5.82745 11.8249L9.81605 25.8298C10.0224 26.552 10.3835 27.0842 10.8668 27.4263C11.3528 27.7711 11.8959 27.9422 12.4959 27.9422C13.1286 27.9422 13.6553 27.7928 14.0789 27.4942C14.5024 27.1955 14.8527 26.8018 15.1296 26.3104L17.6032 21.9416C17.9426 21.3443 18.2358 20.823 18.4829 20.3777C18.73 19.9324 18.9499 19.5306 19.1427 19.1722C19.3355 18.811 19.5038 18.4852 19.6504 18.1947C19.797 17.9042 19.9328 17.6191 20.055 17.3448C20.1935 17.6218 20.3374 17.9042 20.484 18.1947C20.6306 18.4852 20.8044 18.811 21.0053 19.1722C21.2062 19.5333 21.4289 19.9378 21.6759 20.3913C21.923 20.842 22.2163 21.3687 22.5557 21.9661L25.0292 26.3104C25.3224 26.8154 25.6808 27.2145 26.1044 27.505C26.528 27.7956 27.0493 27.9422 27.6656 27.9422C28.282 27.9422 28.8114 27.7711 29.2947 27.4263C29.7807 27.0815 30.1392 26.5493 30.3455 25.8298L34.3884 11.8086H34.3911Z" fill="url(#paint0_linear_1167_9743)"/>
  <path fill-rule="evenodd" clip-rule="evenodd" d="M24.1956 1.67195L30.7772 8.21553L28.2195 17.6671C27.986 18.5251 27.7851 19.2907 27.6059 19.9668C27.4294 20.6402 27.2773 21.2837 27.1551 21.8973C27.033 21.6367 26.9053 21.3679 26.775 21.0936C26.6447 20.8167 26.4926 20.5153 26.3243 20.1868C26.156 19.8582 25.9632 19.489 25.746 19.0844C25.5315 18.6771 25.2762 18.2074 24.983 17.6698L22.9249 13.7844C22.724 13.4015 22.5203 13.0974 22.3113 12.8775C22.1022 12.6548 21.8877 12.4838 21.6623 12.3616C21.4397 12.2394 21.2035 12.158 20.9564 12.12C20.7093 12.0819 20.4405 12.0629 20.1473 12.0629C19.8703 12.0629 19.6069 12.0819 19.3599 12.12C19.1128 12.158 18.8793 12.2394 18.6539 12.3616C18.4313 12.4838 18.2195 12.6576 18.0186 12.8775C17.8176 13.1001 17.6167 13.4015 17.4158 13.7844L15.336 17.6453C14.7956 18.6418 14.3612 19.4645 14.03 20.1162C13.6987 20.7678 13.4082 21.3597 13.1638 21.8973C13.0416 21.2701 12.8977 20.6266 12.7348 19.9668C12.5719 19.307 12.3601 18.5441 12.1212 17.6671L9.53906 8.12593L16.0338 1.67195C18.2792 -0.559922 21.9501 -0.559922 24.1956 1.67195Z" fill="url(#paint1_linear_1167_9743)"/>
  <defs>
    <linearGradient id="paint0_linear_1167_9743" x1="20.1174" y1="40.0003" x2="20.1174" y2="11.8086" gradientUnits="userSpaceOnUse">
      <stop stop-color="#90774F"/>
      <stop offset="1" stop-color="#FBDA82"/>
    </linearGradient>
    <linearGradient id="paint1_linear_1167_9743" x1="20.1608" y1="21.8973" x2="20.1608" y2="-0.000595699" gradientUnits="userSpaceOnUse">
      <stop stop-color="#FBDA82"/>
      <stop offset="1" stop-color="#90774F"/>
    </linearGradient>
  </defs>
</svg>