<svg width="8" height="15" viewBox="0 0 8 15" fill="none" xmlns="http://www.w3.org/2000/svg">
<path d="M7.54267 6.78955L1.88267 1.13955C1.7897 1.04582 1.6791 0.971426 1.55724 0.920657C1.43538 0.869888 1.30468 0.84375 1.17267 0.84375C1.04066 0.84375 0.90995 0.869888 0.788091 0.920657C0.666231 0.971426 0.55563 1.04582 0.462667 1.13955C0.276417 1.32691 0.171875 1.58036 0.171875 1.84455C0.171875 2.10873 0.276417 2.36219 0.462667 2.54955L5.41267 7.54955L0.462667 12.4995C0.276417 12.6869 0.171875 12.9404 0.171875 13.2045C0.171875 13.4687 0.276417 13.7222 0.462667 13.9095C0.555282 14.004 0.665727 14.0792 0.787602 14.1307C0.909478 14.1822 1.04036 14.209 1.17267 14.2095C1.30497 14.209 1.43586 14.1822 1.55773 14.1307C1.67961 14.0792 1.79005 14.004 1.88267 13.9095L7.54267 8.25955C7.64417 8.16591 7.72518 8.05225 7.78059 7.92576C7.836 7.79926 7.8646 7.66265 7.8646 7.52455C7.8646 7.38645 7.836 7.24984 7.78059 7.12334C7.72518 6.99684 7.64417 6.88319 7.54267 6.78955Z" fill="#6F7489"/>
</svg>
